<svg id="logo-final" xmlns="http://www.w3.org/2000/svg" width="355" height="100" viewBox="0 0 350 100">
  <defs>
    <style>
      .cls-1 {
        fill: #1a1919;
      }

      .cls-2 {
        fill: #7ab629;
      }
    </style>
  </defs>
  <path id="Elexio" class="cls-1" d="M169.369,82.222V71.289H139.956V56.8h25.236V45.867H139.956V32h29.413V21.067H127.337V82.222h42.032Zm19.549,0V16.178H177.011V82.222h11.907Zm47.451-22.578a71.269,71.269,0,0,0-1.022-14.178,10.276,10.276,0,0,0-5.109-6.933q-4.089-2.354-13.152-2.355-9.243,0-13.64,2.4a11.52,11.52,0,0,0-5.776,7.155q-1.378,4.756-1.377,13.911,0,9.423,1.333,14.133a10.65,10.65,0,0,0,5.953,6.933q4.62,2.223,14.485,2.222,4.442,0,9.064-.4a60.736,60.736,0,0,0,7.464-1.022V72.444q-8.531.712-13.774,0.711a39.083,39.083,0,0,1-8.8-.667,4.277,4.277,0,0,1-3.2-2.622,22.117,22.117,0,0,1-.711-6.756h28.258V59.644ZM216.909,45.6a14.9,14.9,0,0,1,5.153.667,4.209,4.209,0,0,1,2.4,2.8,23.268,23.268,0,0,1,.711,6.756H208.111a29.189,29.189,0,0,1,.667-6.667,4.042,4.042,0,0,1,2.355-2.8,15.977,15.977,0,0,1,5.776-.756h0Zm67.534,36.622L268.626,59.111l15.2-22.222H271.292l-9.331,13.778h-0.622L251.92,36.889H238.858L254.053,59.2,238.324,82.222h12.441l9.952-14.489h0.534l10.041,14.489h13.151Zm16.439-55.289V16.178H288.708V26.933h12.174ZM300.7,82.222V36.889H288.8V82.222H300.7Zm28.168,0.711q9.774,0,14.085-2a9.631,9.631,0,0,0,5.509-6.622q1.2-4.621,1.2-14.844t-1.2-14.8A9.5,9.5,0,0,0,343,38.133q-4.264-1.954-14.129-1.956t-14.129,1.956a9.5,9.5,0,0,0-5.465,6.533q-1.2,4.579-1.2,14.8t1.2,14.844a9.628,9.628,0,0,0,5.51,6.622q4.309,2,14.084,2h0Zm0-9.778q-4.622,0-6.353-.889a4.251,4.251,0,0,1-2.133-3.378,71.461,71.461,0,0,1-.4-9.422,70.355,70.355,0,0,1,.4-9.378,4.094,4.094,0,0,1,2.133-3.289q1.732-.844,6.353-0.844t6.354,0.844a4.091,4.091,0,0,1,2.132,3.289,70.355,70.355,0,0,1,.4,9.378,71.461,71.461,0,0,1-.4,9.422,4.248,4.248,0,0,1-2.132,3.378q-1.732.89-6.354,0.889h0Z" transform="translate(0 0)"/>
  <path class="cls-2" d="M2.119,40.315h4.1V38.322h-4.1a2.119,2.119,0,1,1,0-4.239h4.1V30.94a1.23,1.23,0,0,1,1.229-1.229H7.8a2.284,2.284,0,0,1,1.789.858h4.866a1.948,1.948,0,0,1,1.661.941,4.976,4.976,0,0,0,1.217,1.4,9.512,9.512,0,0,0,3.476,1.454c0.274,0.024.546,0.029,0.81,0.034a3.107,3.107,0,0,1,2.62.908,2.474,2.474,0,0,1,.518,1.2l0.013,0.081v0.734h0.069A11.207,11.207,0,0,1,35.6,46.336H35.78V75.445a6.569,6.569,0,0,0,6.1,6.439,6.262,6.262,0,0,0,4.585-1.745,6.552,6.552,0,0,0,2.1-4.677V37.429a11.259,11.259,0,0,1,3-7.431,10.884,10.884,0,0,1,6.142-3.351V8.712A8.323,8.323,0,0,1,66.022.4H91.786A8.323,8.323,0,0,1,100.1,8.712V89.993h5.439a4.914,4.914,0,0,1,4.908,4.908v4.241H47.361V94.9a4.913,4.913,0,0,1,4.908-4.908h5.439V31.246a6.645,6.645,0,0,0-4.659,6.241V75.514a11.028,11.028,0,0,1-3.516,7.9,10.856,10.856,0,0,1-7.858,2.956A10.992,10.992,0,0,1,31.293,75.49V47.828L31.264,47.6a6.566,6.566,0,0,0-1.708-3.627A6.711,6.711,0,0,0,24.774,41.8l0,0.623-0.062.173a2.612,2.612,0,0,1-.544.9,3.441,3.441,0,0,1-2.753.866c-0.126,0-.249,0-0.369,0a6.247,6.247,0,0,0-3.659,1.347,5.9,5.9,0,0,0-1.274,1.445,1.93,1.93,0,0,1-1.642.91H9.706A2.288,2.288,0,0,1,7.8,49.086H7.445a1.23,1.23,0,0,1-1.229-1.229v-3.3h-4.1A2.119,2.119,0,1,1,2.119,40.315ZM72.687,83.266L88.3,60.922l-7.643-.695,5.157-16.968L70.749,64.872l7.387,0.914ZM64.028,36.8H93.779V7.049H64.028V36.8Z" transform="translate(0 0)"/>
</svg>
