<svg id="&#x421;&#x43B;&#x43E;&#x439;_1" height="512" viewBox="0 0 128 128" width="512" xmlns="http://www.w3.org/2000/svg"><path d="m26 110a2.16 2.16 0 0 1 -.56-.08 2 2 0 0 1 -1.44-1.92v-38.87h-22a2 2 0 0 1 -2-2v-47.13a2 2 0 0 1 2-2h50a2 2 0 0 1 2 2v47.09a2 2 0 0 1 -.31 1.07l-26 40.91a2 2 0 0 1 -1.69.93zm-22-44.91h22a2 2 0 0 1 2 2v34l22-34.59v-44.5h-46z"/><path d="m100 110a2.16 2.16 0 0 1 -.56-.08 2 2 0 0 1 -1.44-1.92v-38.87h-22a2 2 0 0 1 -2-2v-47.13a2 2 0 0 1 2-2h50a2 2 0 0 1 2 2v47.09a2 2 0 0 1 -.31 1.07l-26 40.91a2 2 0 0 1 -1.69.93zm-22-44.91h22a2 2 0 0 1 2 2v34l22-34.59v-44.5h-46z"/></svg>